<svg width="1278" height="782" viewBox="0 0 1278 782" fill="none" xmlns="http://www.w3.org/2000/svg">
<g clip-path="url(#clip0)">
<mask id="mask0" mask-type="alpha" maskUnits="userSpaceOnUse" x="31" y="520" width="1221" height="42">
<rect x="31" y="520" width="1221" height="42" fill="white"/>
</mask>
<g mask="url(#mask0)">
<rect x="1176" y="520" width="76" height="47" fill="#FFDE7D"/>
<path d="M1029.07 531.844H1031.27L1035.62 544.465L1040.16 531.164L1044.74 544.465L1049.11 531.844H1051.31L1044.67 549.668L1040.18 536.402L1035.71 549.668L1029.07 531.844ZM1053.21 549V531.844H1062.26V533.707H1055.25V538.629H1062.26V540.527H1055.25V547.102H1062.26V549H1053.21ZM1065.73 549V531.844H1069.3C1070.56 531.844 1071.48 531.91 1072.08 532.043C1072.68 532.168 1073.2 532.387 1073.62 532.699C1074.17 533.105 1074.59 533.629 1074.89 534.27C1075.2 534.902 1075.35 535.598 1075.35 536.355C1075.35 537.262 1075.13 538.02 1074.69 538.629C1074.26 539.238 1073.63 539.664 1072.8 539.906C1073.82 540.062 1074.62 540.52 1075.21 541.277C1075.8 542.027 1076.1 542.977 1076.1 544.125C1076.1 544.812 1075.97 545.469 1075.72 546.094C1075.47 546.719 1075.12 547.254 1074.68 547.699C1074.2 548.176 1073.6 548.512 1072.89 548.707C1072.18 548.902 1070.98 549 1069.3 549H1065.73ZM1067.72 540.961V547.219H1069.3C1070.39 547.219 1071.17 547.176 1071.64 547.09C1072.13 547.004 1072.52 546.855 1072.8 546.645C1073.16 546.395 1073.43 546.047 1073.64 545.602C1073.84 545.156 1073.94 544.664 1073.94 544.125C1073.94 543.5 1073.82 542.957 1073.58 542.496C1073.34 542.035 1072.98 541.676 1072.52 541.418C1072.25 541.254 1071.93 541.137 1071.57 541.066C1071.21 540.996 1070.66 540.961 1069.9 540.961H1069.3H1067.72ZM1067.72 533.613V539.355H1069.3C1070.75 539.355 1071.78 539.145 1072.37 538.723C1072.96 538.301 1073.26 537.59 1073.26 536.59C1073.26 535.488 1072.98 534.719 1072.43 534.281C1071.88 533.836 1070.84 533.613 1069.3 533.613H1067.72ZM1088.37 547.078H1089.67C1091.78 547.078 1093.24 546.988 1094.05 546.809C1094.86 546.621 1095.54 546.305 1096.08 545.859C1096.78 545.273 1097.32 544.52 1097.68 543.598C1098.05 542.668 1098.23 541.605 1098.23 540.41C1098.23 539.207 1098.05 538.152 1097.68 537.246C1097.32 536.332 1096.79 535.578 1096.08 534.984C1095.54 534.531 1094.85 534.211 1094.02 534.023C1093.19 533.828 1091.74 533.73 1089.67 533.73H1088.37V547.078ZM1086.3 549V531.844H1089.6C1092.04 531.844 1093.75 531.969 1094.74 532.219C1095.74 532.461 1096.62 532.871 1097.37 533.449C1098.35 534.207 1099.1 535.176 1099.61 536.355C1100.11 537.535 1100.37 538.895 1100.37 540.434C1100.37 541.965 1100.11 543.32 1099.61 544.5C1099.11 545.672 1098.36 546.637 1097.37 547.395C1096.62 547.973 1095.76 548.387 1094.8 548.637C1093.85 548.879 1092.36 549 1090.34 549H1089.6H1086.3ZM1103.72 549V531.844H1112.77V533.707H1105.76V538.629H1112.77V540.527H1105.76V547.102H1112.77V549H1103.72ZM1122.48 539.473C1123.6 539.949 1124.44 540.582 1125 541.371C1125.57 542.16 1125.86 543.094 1125.86 544.172C1125.86 545.75 1125.35 547.023 1124.34 547.992C1123.34 548.953 1122.02 549.434 1120.36 549.434C1119.01 549.434 1117.88 549.09 1116.96 548.402C1116.05 547.707 1115.43 546.723 1115.11 545.449L1116.96 544.535C1117.21 545.574 1117.62 546.363 1118.19 546.902C1118.77 547.434 1119.49 547.699 1120.36 547.699C1121.38 547.699 1122.21 547.406 1122.84 546.82C1123.48 546.227 1123.79 545.457 1123.79 544.512C1123.79 543.746 1123.57 543.082 1123.12 542.52C1122.69 541.949 1122.02 541.469 1121.13 541.078L1119.05 540.188C1117.91 539.711 1117.05 539.098 1116.49 538.348C1115.94 537.598 1115.66 536.699 1115.66 535.652C1115.66 534.434 1116.11 533.426 1117.02 532.629C1117.93 531.832 1119.08 531.434 1120.49 531.434C1121.52 531.434 1122.41 531.652 1123.16 532.09C1123.92 532.527 1124.51 533.172 1124.93 534.023L1123.24 535.102C1122.86 534.438 1122.43 533.945 1121.95 533.625C1121.48 533.297 1120.94 533.133 1120.34 533.133C1119.57 533.133 1118.94 533.367 1118.45 533.836C1117.96 534.305 1117.72 534.902 1117.72 535.629C1117.72 536.238 1117.91 536.766 1118.29 537.211C1118.66 537.656 1119.24 538.051 1120.03 538.395L1122.48 539.473ZM1128.61 549V531.844H1130.65V549H1128.61ZM1144.23 540.141H1151.31V540.715C1151.31 543.418 1150.54 545.551 1149.01 547.113C1147.48 548.676 1145.39 549.457 1142.74 549.457C1141.94 549.457 1141.17 549.371 1140.43 549.199C1139.71 549.027 1139.04 548.777 1138.42 548.449C1137.01 547.676 1135.93 546.609 1135.16 545.25C1134.39 543.883 1134.01 542.332 1134.01 540.598C1134.01 539.168 1134.24 537.879 1134.69 536.73C1135.15 535.574 1135.84 534.559 1136.77 533.684C1137.54 532.949 1138.44 532.395 1139.46 532.02C1140.48 531.645 1141.62 531.457 1142.86 531.457C1144.51 531.457 1145.94 531.758 1147.15 532.359C1148.36 532.953 1149.36 533.852 1150.16 535.055L1148.45 536.426C1147.83 535.387 1147.06 534.609 1146.14 534.094C1145.22 533.57 1144.15 533.309 1142.93 533.309C1140.94 533.309 1139.32 533.98 1138.08 535.324C1136.84 536.668 1136.21 538.426 1136.21 540.598C1136.21 542.645 1136.84 544.324 1138.1 545.637C1139.37 546.949 1140.98 547.605 1142.93 547.605C1144.65 547.605 1146.08 547.086 1147.22 546.047C1148.37 545 1149 543.641 1149.13 541.969H1144.23V540.141ZM1154.34 549V531.164L1166.89 544.875V531.844H1168.84V549.668L1156.29 536.109V549H1154.34Z" fill="white"/>
<path d="M1186.37 531.457H1187.98L1179.55 551.227H1177.97L1186.37 531.457ZM1199.18 547.078H1200.48C1202.59 547.078 1204.05 546.988 1204.86 546.809C1205.68 546.621 1206.35 546.305 1206.89 545.859C1207.59 545.273 1208.13 544.52 1208.5 543.598C1208.86 542.668 1209.05 541.605 1209.05 540.41C1209.05 539.207 1208.86 538.152 1208.5 537.246C1208.14 536.332 1207.6 535.578 1206.89 534.984C1206.35 534.531 1205.66 534.211 1204.83 534.023C1204 533.828 1202.55 533.73 1200.48 533.73H1199.18V547.078ZM1197.12 549V531.844H1200.41C1202.85 531.844 1204.56 531.969 1205.55 532.219C1206.55 532.461 1207.43 532.871 1208.18 533.449C1209.16 534.207 1209.91 535.176 1210.42 536.355C1210.93 537.535 1211.18 538.895 1211.18 540.434C1211.18 541.965 1210.93 543.32 1210.42 544.5C1209.92 545.672 1209.17 546.637 1208.18 547.395C1207.43 547.973 1206.57 548.387 1205.61 548.637C1204.66 548.879 1203.17 549 1201.15 549H1200.41H1197.12ZM1214.53 549V531.844H1223.58V533.707H1216.57V538.629H1223.58V540.527H1216.57V547.102H1223.58V549H1214.53ZM1231.95 549.668L1224.69 531.844H1226.91L1231.95 544.969L1236.96 531.844H1239.16L1231.95 549.668ZM1237.05 547.852C1237.05 547.469 1237.19 547.141 1237.46 546.867C1237.74 546.594 1238.07 546.457 1238.45 546.457C1238.84 546.457 1239.17 546.594 1239.45 546.867C1239.73 547.133 1239.87 547.461 1239.87 547.852C1239.87 548.234 1239.73 548.559 1239.46 548.824C1239.18 549.082 1238.85 549.211 1238.45 549.211C1238.06 549.211 1237.73 549.082 1237.45 548.824C1237.19 548.559 1237.05 548.234 1237.05 547.852Z" fill="black"/>
</g>
<mask id="mask1" mask-type="alpha" maskUnits="userSpaceOnUse" x="31" y="390" width="1221" height="42">
<rect x="31" y="390" width="1221" height="42" fill="white"/>
</mask>
<g mask="url(#mask1)">
<rect x="846" y="389" width="89" height="47" fill="#FFDE7D"/>
<rect x="934" y="390" width="47" height="63" fill="#71FFA1"/>
<rect x="979" y="389" width="273" height="47" fill="#FFDE7D"/>
<path d="M955.852 405.945C955.031 405.055 954.156 404.398 953.227 403.977C952.297 403.547 951.27 403.332 950.145 403.332C949.238 403.332 948.352 403.516 947.484 403.883C946.625 404.25 945.879 404.762 945.246 405.418C944.59 406.098 944.098 406.859 943.77 407.703C943.441 408.539 943.277 409.465 943.277 410.48C943.277 411.277 943.375 412.012 943.57 412.684C943.766 413.355 944.059 413.973 944.449 414.535C945.137 415.512 945.98 416.266 946.98 416.797C947.988 417.32 949.074 417.582 950.238 417.582C951.332 417.582 952.348 417.355 953.285 416.902C954.223 416.449 955.078 415.773 955.852 414.875V417.582C955 418.199 954.082 418.668 953.098 418.988C952.121 419.301 951.109 419.457 950.062 419.457C949.156 419.457 948.273 419.32 947.414 419.047C946.555 418.781 945.75 418.391 945 417.875C943.75 417.008 942.793 415.941 942.129 414.676C941.473 413.41 941.145 412.02 941.145 410.504C941.145 409.184 941.363 407.984 941.801 406.906C942.246 405.82 942.922 404.836 943.828 403.953C944.703 403.109 945.672 402.48 946.734 402.066C947.797 401.645 948.957 401.434 950.215 401.434C951.207 401.434 952.168 401.586 953.098 401.891C954.027 402.188 954.945 402.652 955.852 403.285V405.945ZM967.723 417.535C968.66 417.535 969.551 417.359 970.395 417.008C971.246 416.648 972.012 416.129 972.691 415.449C973.363 414.777 973.875 414.016 974.227 413.164C974.578 412.312 974.754 411.41 974.754 410.457C974.754 409.496 974.574 408.582 974.215 407.715C973.863 406.848 973.355 406.082 972.691 405.418C972.02 404.746 971.258 404.234 970.406 403.883C969.562 403.531 968.668 403.355 967.723 403.355C966.77 403.355 965.867 403.531 965.016 403.883C964.164 404.234 963.41 404.746 962.754 405.418C962.082 406.098 961.57 406.867 961.219 407.727C960.867 408.586 960.691 409.496 960.691 410.457C960.691 411.41 960.863 412.309 961.207 413.152C961.559 413.996 962.074 414.762 962.754 415.449C963.441 416.137 964.203 416.656 965.039 417.008C965.883 417.359 966.777 417.535 967.723 417.535ZM976.887 410.457C976.887 411.684 976.66 412.84 976.207 413.926C975.754 415.012 975.094 415.977 974.227 416.82C973.359 417.664 972.359 418.316 971.227 418.777C970.102 419.23 968.934 419.457 967.723 419.457C966.512 419.457 965.344 419.23 964.219 418.777C963.102 418.316 962.109 417.664 961.242 416.82C960.367 415.969 959.699 415 959.238 413.914C958.785 412.828 958.559 411.676 958.559 410.457C958.559 409.23 958.785 408.074 959.238 406.988C959.699 405.895 960.367 404.922 961.242 404.07C962.102 403.234 963.094 402.59 964.219 402.137C965.344 401.684 966.512 401.457 967.723 401.457C968.941 401.457 970.113 401.684 971.238 402.137C972.371 402.59 973.367 403.234 974.227 404.07C975.094 404.914 975.754 405.883 976.207 406.977C976.66 408.062 976.887 409.223 976.887 410.457ZM982.289 417.078H983.59C985.699 417.078 987.16 416.988 987.973 416.809C988.785 416.621 989.461 416.305 990 415.859C990.703 415.273 991.238 414.52 991.605 413.598C991.973 412.668 992.156 411.605 992.156 410.41C992.156 409.207 991.973 408.152 991.605 407.246C991.246 406.332 990.711 405.578 990 404.984C989.461 404.531 988.773 404.211 987.938 404.023C987.109 403.828 985.66 403.73 983.59 403.73H982.289V417.078ZM980.227 419V401.844H983.52C985.957 401.844 987.672 401.969 988.664 402.219C989.664 402.461 990.539 402.871 991.289 403.449C992.273 404.207 993.02 405.176 993.527 406.355C994.035 407.535 994.289 408.895 994.289 410.434C994.289 411.965 994.035 413.32 993.527 414.5C993.027 415.672 992.281 416.637 991.289 417.395C990.539 417.973 989.684 418.387 988.723 418.637C987.77 418.879 986.281 419 984.258 419H983.52H980.227ZM997.664 419V401.844H999.703V419H997.664ZM1003.85 419V401.164L1016.4 414.875V401.844H1018.35V419.668L1005.8 406.109V419H1003.85ZM1031.89 410.141H1038.97V410.715C1038.97 413.418 1038.21 415.551 1036.68 417.113C1035.14 418.676 1033.05 419.457 1030.41 419.457C1029.6 419.457 1028.83 419.371 1028.1 419.199C1027.37 419.027 1026.7 418.777 1026.08 418.449C1024.68 417.676 1023.59 416.609 1022.82 415.25C1022.06 413.883 1021.68 412.332 1021.68 410.598C1021.68 409.168 1021.9 407.879 1022.36 406.73C1022.82 405.574 1023.51 404.559 1024.43 403.684C1025.2 402.949 1026.1 402.395 1027.12 402.02C1028.15 401.645 1029.28 401.457 1030.52 401.457C1032.17 401.457 1033.6 401.758 1034.81 402.359C1036.02 402.953 1037.03 403.852 1037.82 405.055L1036.11 406.426C1035.5 405.387 1034.73 404.609 1033.8 404.094C1032.88 403.57 1031.81 403.309 1030.59 403.309C1028.6 403.309 1026.98 403.98 1025.74 405.324C1024.5 406.668 1023.88 408.426 1023.88 410.598C1023.88 412.645 1024.51 414.324 1025.77 415.637C1027.03 416.949 1028.64 417.605 1030.59 417.605C1032.31 417.605 1033.74 417.086 1034.88 416.047C1036.03 415 1036.67 413.641 1036.79 411.969H1031.89V410.141ZM1055.43 401.457H1057.03L1048.61 421.227H1047.02L1055.43 401.457ZM1068.16 411.301V419H1066.17V401.844H1069.77C1071.03 401.844 1071.95 401.91 1072.55 402.043C1073.14 402.176 1073.66 402.395 1074.09 402.699C1074.64 403.09 1075.07 403.625 1075.37 404.305C1075.68 404.984 1075.84 405.738 1075.84 406.566C1075.84 407.395 1075.68 408.148 1075.37 408.828C1075.07 409.508 1074.64 410.043 1074.09 410.434C1073.66 410.746 1073.14 410.969 1072.55 411.102C1071.96 411.234 1071.04 411.301 1069.77 411.301H1069.2H1068.16ZM1068.16 409.449H1069.2C1070.95 409.449 1072.12 409.246 1072.72 408.84C1073.33 408.426 1073.64 407.707 1073.64 406.684C1073.64 405.59 1073.32 404.82 1072.7 404.375C1072.08 403.93 1070.91 403.707 1069.2 403.707H1068.16V409.449ZM1078.36 419V401.844H1082.39C1083.54 401.844 1084.38 401.91 1084.91 402.043C1085.45 402.168 1085.92 402.387 1086.33 402.699C1086.84 403.098 1087.23 403.633 1087.51 404.305C1087.79 404.969 1087.93 405.707 1087.93 406.52C1087.93 407.926 1087.54 408.996 1086.75 409.73C1085.97 410.457 1084.82 410.82 1083.3 410.82H1082.94L1089.49 419H1086.9L1080.64 410.82H1080.35V419H1078.36ZM1080.35 403.566V409.309H1081.91C1083.5 409.309 1084.57 409.105 1085.11 408.699C1085.65 408.285 1085.92 407.566 1085.92 406.543C1085.92 405.441 1085.64 404.672 1085.09 404.234C1084.53 403.789 1083.47 403.566 1081.91 403.566H1080.35ZM1099.58 417.535C1100.52 417.535 1101.41 417.359 1102.25 417.008C1103.11 416.648 1103.87 416.129 1104.55 415.449C1105.22 414.777 1105.73 414.016 1106.09 413.164C1106.44 412.312 1106.61 411.41 1106.61 410.457C1106.61 409.496 1106.43 408.582 1106.07 407.715C1105.72 406.848 1105.21 406.082 1104.55 405.418C1103.88 404.746 1103.12 404.234 1102.27 403.883C1101.42 403.531 1100.53 403.355 1099.58 403.355C1098.63 403.355 1097.73 403.531 1096.88 403.883C1096.02 404.234 1095.27 404.746 1094.61 405.418C1093.94 406.098 1093.43 406.867 1093.08 407.727C1092.73 408.586 1092.55 409.496 1092.55 410.457C1092.55 411.41 1092.72 412.309 1093.07 413.152C1093.42 413.996 1093.93 414.762 1094.61 415.449C1095.3 416.137 1096.06 416.656 1096.9 417.008C1097.74 417.359 1098.64 417.535 1099.58 417.535ZM1108.75 410.457C1108.75 411.684 1108.52 412.84 1108.07 413.926C1107.61 415.012 1106.95 415.977 1106.09 416.82C1105.22 417.664 1104.22 418.316 1103.09 418.777C1101.96 419.23 1100.79 419.457 1099.58 419.457C1098.37 419.457 1097.2 419.23 1096.08 418.777C1094.96 418.316 1093.97 417.664 1093.1 416.82C1092.23 415.969 1091.56 415 1091.1 413.914C1090.64 412.828 1090.42 411.676 1090.42 410.457C1090.42 409.23 1090.64 408.074 1091.1 406.988C1091.56 405.895 1092.23 404.922 1093.1 404.07C1093.96 403.234 1094.95 402.59 1096.08 402.137C1097.2 401.684 1098.37 401.457 1099.58 401.457C1100.8 401.457 1101.97 401.684 1103.1 402.137C1104.23 402.59 1105.23 403.234 1106.09 404.07C1106.95 404.914 1107.61 405.883 1108.07 406.977C1108.52 408.062 1108.75 409.223 1108.75 410.457ZM1121.52 410.141H1128.6V410.715C1128.6 413.418 1127.83 415.551 1126.3 417.113C1124.77 418.676 1122.68 419.457 1120.03 419.457C1119.23 419.457 1118.46 419.371 1117.72 419.199C1117 419.027 1116.32 418.777 1115.71 418.449C1114.3 417.676 1113.21 416.609 1112.45 415.25C1111.68 413.883 1111.3 412.332 1111.3 410.598C1111.3 409.168 1111.53 407.879 1111.98 406.73C1112.44 405.574 1113.13 404.559 1114.05 403.684C1114.83 402.949 1115.73 402.395 1116.75 402.02C1117.77 401.645 1118.91 401.457 1120.15 401.457C1121.8 401.457 1123.23 401.758 1124.44 402.359C1125.65 402.953 1126.65 403.852 1127.45 405.055L1125.74 406.426C1125.12 405.387 1124.35 404.609 1123.43 404.094C1122.51 403.57 1121.44 403.309 1120.22 403.309C1118.23 403.309 1116.61 403.98 1115.37 405.324C1114.12 406.668 1113.5 408.426 1113.5 410.598C1113.5 412.645 1114.13 414.324 1115.39 415.637C1116.66 416.949 1118.27 417.605 1120.22 417.605C1121.94 417.605 1123.37 417.086 1124.51 416.047C1125.66 415 1126.29 413.641 1126.42 411.969H1121.52V410.141ZM1131.63 419V401.844H1135.66C1136.81 401.844 1137.65 401.91 1138.18 402.043C1138.72 402.168 1139.2 402.387 1139.6 402.699C1140.11 403.098 1140.5 403.633 1140.79 404.305C1141.07 404.969 1141.21 405.707 1141.21 406.52C1141.21 407.926 1140.81 408.996 1140.02 409.73C1139.24 410.457 1138.09 410.82 1136.58 410.82H1136.21L1142.77 419H1140.18L1133.92 410.82H1133.62V419H1131.63ZM1133.62 403.566V409.309H1135.18C1136.78 409.309 1137.84 409.105 1138.38 408.699C1138.92 408.285 1139.19 407.566 1139.19 406.543C1139.19 405.441 1138.91 404.672 1138.36 404.234C1137.8 403.789 1136.75 403.566 1135.18 403.566H1133.62ZM1149.9 405.676L1147.17 411.992H1152.63L1149.9 405.676ZM1149.9 401.164L1157.71 419H1155.49L1153.27 413.738H1146.56L1144.34 419H1142.12L1149.9 401.164ZM1167.47 419.668L1162.14 407.34L1159.98 419H1157.99L1161.47 401.164L1167.47 415.355L1173.47 401.164L1176.95 419H1174.96L1172.78 407.34L1167.47 419.668ZM1187.58 419.668L1182.25 407.34L1180.09 419H1178.1L1181.58 401.164L1187.58 415.355L1193.58 401.164L1197.06 419H1195.07L1192.89 407.34L1187.58 419.668ZM1199.72 419V401.844H1201.76V419H1199.72ZM1205.91 419V401.164L1218.46 414.875V401.844H1220.4V419.668L1207.85 406.109V419H1205.91ZM1233.95 410.141H1241.03V410.715C1241.03 413.418 1240.26 415.551 1238.73 417.113C1237.2 418.676 1235.11 419.457 1232.46 419.457C1231.66 419.457 1230.89 419.371 1230.15 419.199C1229.43 419.027 1228.75 418.777 1228.14 418.449C1226.73 417.676 1225.64 416.609 1224.88 415.25C1224.11 413.883 1223.73 412.332 1223.73 410.598C1223.73 409.168 1223.96 407.879 1224.41 406.73C1224.87 405.574 1225.56 404.559 1226.48 403.684C1227.26 402.949 1228.16 402.395 1229.18 402.02C1230.2 401.645 1231.34 401.457 1232.58 401.457C1234.23 401.457 1235.66 401.758 1236.87 402.359C1238.08 402.953 1239.08 403.852 1239.88 405.055L1238.17 406.426C1237.55 405.387 1236.78 404.609 1235.86 404.094C1234.94 403.57 1233.87 403.309 1232.65 403.309C1230.66 403.309 1229.04 403.98 1227.8 405.324C1226.55 406.668 1225.93 408.426 1225.93 410.598C1225.93 412.645 1226.56 414.324 1227.82 415.637C1229.09 416.949 1230.7 417.605 1232.65 417.605C1234.37 417.605 1235.8 417.086 1236.94 416.047C1238.09 415 1238.72 413.641 1238.85 411.969H1233.95V410.141Z" fill="black"/>
</g>
<mask id="mask2" mask-type="alpha" maskUnits="userSpaceOnUse" x="31" y="260" width="1221" height="42">
<rect x="31" y="260" width="1221" height="42" fill="white"/>
</mask>
<g mask="url(#mask2)">
<rect x="983" y="260" width="269" height="47" fill="#FFDE7D"/>
<path d="M849.797 289V271.844H851.836V289H849.797ZM855.984 289V271.844H858.023V287.055H864.504V289H855.984ZM866.93 289V271.844H868.969V287.055H875.449V289H866.93ZM877.383 271.844H879.445V282.52C879.445 284.254 879.812 285.527 880.547 286.34C881.289 287.152 882.449 287.559 884.027 287.559C885.605 287.559 886.762 287.152 887.496 286.34C888.238 285.527 888.609 284.254 888.609 282.52V271.844H890.684V282.52C890.684 284.84 890.129 286.578 889.02 287.734C887.918 288.883 886.254 289.457 884.027 289.457C881.809 289.457 880.145 288.883 879.035 287.734C877.934 286.578 877.383 284.84 877.383 282.52V271.844ZM900.996 279.473C902.113 279.949 902.953 280.582 903.516 281.371C904.086 282.16 904.371 283.094 904.371 284.172C904.371 285.75 903.867 287.023 902.859 287.992C901.859 288.953 900.531 289.434 898.875 289.434C897.523 289.434 896.391 289.09 895.477 288.402C894.562 287.707 893.945 286.723 893.625 285.449L895.477 284.535C895.727 285.574 896.137 286.363 896.707 286.902C897.285 287.434 898.008 287.699 898.875 287.699C899.898 287.699 900.727 287.406 901.359 286.82C901.992 286.227 902.309 285.457 902.309 284.512C902.309 283.746 902.086 283.082 901.641 282.52C901.203 281.949 900.539 281.469 899.648 281.078L897.562 280.188C896.422 279.711 895.57 279.098 895.008 278.348C894.453 277.598 894.176 276.699 894.176 275.652C894.176 274.434 894.629 273.426 895.535 272.629C896.441 271.832 897.598 271.434 899.004 271.434C900.035 271.434 900.926 271.652 901.676 272.09C902.434 272.527 903.023 273.172 903.445 274.023L901.758 275.102C901.375 274.438 900.945 273.945 900.469 273.625C899.992 273.297 899.453 273.133 898.852 273.133C898.086 273.133 897.457 273.367 896.965 273.836C896.48 274.305 896.238 274.902 896.238 275.629C896.238 276.238 896.426 276.766 896.801 277.211C897.176 277.656 897.758 278.051 898.547 278.395L900.996 279.473ZM910.102 289V273.789H905.25V271.844H916.992V273.789H912.164V289H910.102ZM919.266 289V271.844H923.297C924.445 271.844 925.285 271.91 925.816 272.043C926.355 272.168 926.828 272.387 927.234 272.699C927.742 273.098 928.137 273.633 928.418 274.305C928.699 274.969 928.84 275.707 928.84 276.52C928.84 277.926 928.445 278.996 927.656 279.73C926.875 280.457 925.727 280.82 924.211 280.82H923.848L930.398 289H927.809L921.551 280.82H921.258V289H919.266ZM921.258 273.566V279.309H922.816C924.41 279.309 925.477 279.105 926.016 278.699C926.555 278.285 926.824 277.566 926.824 276.543C926.824 275.441 926.547 274.672 925.992 274.234C925.438 273.789 924.379 273.566 922.816 273.566H921.258ZM937.535 275.676L934.805 281.992H940.266L937.535 275.676ZM937.535 271.164L945.34 289H943.125L940.898 283.738H934.195L931.969 289H929.754L937.535 271.164ZM948.797 289V273.789H943.945V271.844H955.688V273.789H950.859V289H948.797ZM957.984 289V271.844H960.023V289H957.984ZM972.551 287.535C973.488 287.535 974.379 287.359 975.223 287.008C976.074 286.648 976.84 286.129 977.52 285.449C978.191 284.777 978.703 284.016 979.055 283.164C979.406 282.312 979.582 281.41 979.582 280.457C979.582 279.496 979.402 278.582 979.043 277.715C978.691 276.848 978.184 276.082 977.52 275.418C976.848 274.746 976.086 274.234 975.234 273.883C974.391 273.531 973.496 273.355 972.551 273.355C971.598 273.355 970.695 273.531 969.844 273.883C968.992 274.234 968.238 274.746 967.582 275.418C966.91 276.098 966.398 276.867 966.047 277.727C965.695 278.586 965.52 279.496 965.52 280.457C965.52 281.41 965.691 282.309 966.035 283.152C966.387 283.996 966.902 284.762 967.582 285.449C968.27 286.137 969.031 286.656 969.867 287.008C970.711 287.359 971.605 287.535 972.551 287.535ZM981.715 280.457C981.715 281.684 981.488 282.84 981.035 283.926C980.582 285.012 979.922 285.977 979.055 286.82C978.188 287.664 977.188 288.316 976.055 288.777C974.93 289.23 973.762 289.457 972.551 289.457C971.34 289.457 970.172 289.23 969.047 288.777C967.93 288.316 966.938 287.664 966.07 286.82C965.195 285.969 964.527 285 964.066 283.914C963.613 282.828 963.387 281.676 963.387 280.457C963.387 279.23 963.613 278.074 964.066 276.988C964.527 275.895 965.195 274.922 966.07 274.07C966.93 273.234 967.922 272.59 969.047 272.137C970.172 271.684 971.34 271.457 972.551 271.457C973.77 271.457 974.941 271.684 976.066 272.137C977.199 272.59 978.195 273.234 979.055 274.07C979.922 274.914 980.582 275.883 981.035 276.977C981.488 278.062 981.715 279.223 981.715 280.457Z" fill="white"/>
<path d="M985.055 289V271.164L997.605 284.875V271.844H999.551V289.668L987 276.109V289H985.055ZM1017.08 271.457H1018.69L1010.26 291.227H1008.68L1017.08 271.457ZM1035.82 289.668L1030.49 277.34L1028.33 289H1026.34L1029.82 271.164L1035.82 285.355L1041.82 271.164L1045.3 289H1043.31L1041.13 277.34L1035.82 289.668ZM1056.32 287.535C1057.25 287.535 1058.14 287.359 1058.99 287.008C1059.84 286.648 1060.61 286.129 1061.29 285.449C1061.96 284.777 1062.47 284.016 1062.82 283.164C1063.17 282.312 1063.35 281.41 1063.35 280.457C1063.35 279.496 1063.17 278.582 1062.81 277.715C1062.46 276.848 1061.95 276.082 1061.29 275.418C1060.61 274.746 1059.85 274.234 1059 273.883C1058.16 273.531 1057.26 273.355 1056.32 273.355C1055.36 273.355 1054.46 273.531 1053.61 273.883C1052.76 274.234 1052 274.746 1051.35 275.418C1050.68 276.098 1050.16 276.867 1049.81 277.727C1049.46 278.586 1049.29 279.496 1049.29 280.457C1049.29 281.41 1049.46 282.309 1049.8 283.152C1050.15 283.996 1050.67 284.762 1051.35 285.449C1052.04 286.137 1052.8 286.656 1053.63 287.008C1054.48 287.359 1055.37 287.535 1056.32 287.535ZM1065.48 280.457C1065.48 281.684 1065.25 282.84 1064.8 283.926C1064.35 285.012 1063.69 285.977 1062.82 286.82C1061.95 287.664 1060.95 288.316 1059.82 288.777C1058.7 289.23 1057.53 289.457 1056.32 289.457C1055.11 289.457 1053.94 289.23 1052.81 288.777C1051.7 288.316 1050.7 287.664 1049.84 286.82C1048.96 285.969 1048.29 285 1047.83 283.914C1047.38 282.828 1047.15 281.676 1047.15 280.457C1047.15 279.23 1047.38 278.074 1047.83 276.988C1048.29 275.895 1048.96 274.922 1049.84 274.07C1050.7 273.234 1051.69 272.59 1052.81 272.137C1053.94 271.684 1055.11 271.457 1056.32 271.457C1057.54 271.457 1058.71 271.684 1059.83 272.137C1060.96 272.59 1061.96 273.234 1062.82 274.07C1063.69 274.914 1064.35 275.883 1064.8 276.977C1065.25 278.062 1065.48 279.223 1065.48 280.457ZM1070.51 289V273.789H1065.66V271.844H1077.4V273.789H1072.57V289H1070.51ZM1079.7 289V271.844H1081.73V289H1079.7ZM1094.26 287.535C1095.2 287.535 1096.09 287.359 1096.93 287.008C1097.79 286.648 1098.55 286.129 1099.23 285.449C1099.9 284.777 1100.41 284.016 1100.77 283.164C1101.12 282.312 1101.29 281.41 1101.29 280.457C1101.29 279.496 1101.11 278.582 1100.75 277.715C1100.4 276.848 1099.89 276.082 1099.23 275.418C1098.56 274.746 1097.8 274.234 1096.95 273.883C1096.1 273.531 1095.21 273.355 1094.26 273.355C1093.31 273.355 1092.41 273.531 1091.55 273.883C1090.7 274.234 1089.95 274.746 1089.29 275.418C1088.62 276.098 1088.11 276.867 1087.76 277.727C1087.41 278.586 1087.23 279.496 1087.23 280.457C1087.23 281.41 1087.4 282.309 1087.75 283.152C1088.1 283.996 1088.61 284.762 1089.29 285.449C1089.98 286.137 1090.74 286.656 1091.58 287.008C1092.42 287.359 1093.32 287.535 1094.26 287.535ZM1103.43 280.457C1103.43 281.684 1103.2 282.84 1102.75 283.926C1102.29 285.012 1101.63 285.977 1100.77 286.82C1099.9 287.664 1098.9 288.316 1097.77 288.777C1096.64 289.23 1095.47 289.457 1094.26 289.457C1093.05 289.457 1091.88 289.23 1090.76 288.777C1089.64 288.316 1088.65 287.664 1087.78 286.82C1086.91 285.969 1086.24 285 1085.78 283.914C1085.32 282.828 1085.1 281.676 1085.1 280.457C1085.1 279.23 1085.32 278.074 1085.78 276.988C1086.24 275.895 1086.91 274.922 1087.78 274.07C1088.64 273.234 1089.63 272.59 1090.76 272.137C1091.88 271.684 1093.05 271.457 1094.26 271.457C1095.48 271.457 1096.65 271.684 1097.78 272.137C1098.91 272.59 1099.91 273.234 1100.77 274.07C1101.63 274.914 1102.29 275.883 1102.75 276.977C1103.2 278.062 1103.43 279.223 1103.43 280.457ZM1106.77 289V271.164L1119.32 284.875V271.844H1121.26V289.668L1108.71 276.109V289H1106.77ZM1138.79 271.457H1140.4L1131.97 291.227H1130.39L1138.79 271.457ZM1154.44 289.668L1147.18 271.844H1149.4L1154.44 284.969L1159.45 271.844H1161.66L1154.44 289.668ZM1163.46 289V271.844H1172.51V273.707H1165.5V278.629H1172.51V280.527H1165.5V289H1163.46ZM1173.42 289L1178.7 279.883L1173.77 271.844H1176.22L1179.9 278.371L1183.45 271.844H1185.77L1180.91 280.07L1186.38 289H1183.98L1179.75 281.605L1175.74 289H1173.42ZM1201.75 271.457H1203.35L1194.93 291.227H1193.34L1201.75 271.457ZM1211.75 284.652H1213.84V284.852C1213.84 285.727 1214.12 286.422 1214.7 286.938C1215.27 287.445 1216.04 287.699 1217.03 287.699C1218.16 287.699 1219.04 287.414 1219.65 286.844C1220.27 286.266 1220.58 285.449 1220.58 284.395C1220.58 283.285 1220.26 282.449 1219.63 281.887C1219 281.316 1218.07 281.031 1216.84 281.031C1216.68 281.031 1216.56 281.035 1216.48 281.043C1216.4 281.043 1216.32 281.047 1216.24 281.055V279.379C1216.3 279.379 1216.39 279.383 1216.51 279.391C1216.64 279.398 1216.73 279.402 1216.79 279.402C1217.97 279.402 1218.86 279.145 1219.46 278.629C1220.07 278.113 1220.37 277.348 1220.37 276.332C1220.37 275.434 1220.09 274.723 1219.55 274.199C1219 273.668 1218.26 273.402 1217.32 273.402C1216.32 273.402 1215.54 273.648 1214.98 274.141C1214.42 274.625 1214.12 275.332 1214.07 276.262L1212.06 276.25C1212.14 274.773 1212.63 273.641 1213.54 272.852C1214.45 272.062 1215.73 271.668 1217.37 271.668C1218.95 271.668 1220.2 272.078 1221.12 272.898C1222.04 273.719 1222.5 274.828 1222.5 276.227C1222.5 277.242 1222.23 278.102 1221.69 278.805C1221.16 279.508 1220.41 279.984 1219.45 280.234C1220.48 280.406 1221.28 280.867 1221.86 281.617C1222.43 282.359 1222.72 283.309 1222.72 284.465C1222.72 286.02 1222.21 287.242 1221.19 288.133C1220.17 289.016 1218.76 289.457 1216.96 289.457C1215.37 289.457 1214.11 289.051 1213.16 288.238C1212.22 287.426 1211.75 286.336 1211.75 284.969V284.652ZM1228.71 287.078H1230.01C1232.12 287.078 1233.58 286.988 1234.39 286.809C1235.21 286.621 1235.88 286.305 1236.42 285.859C1237.12 285.273 1237.66 284.52 1238.03 283.598C1238.39 282.668 1238.58 281.605 1238.58 280.41C1238.58 279.207 1238.39 278.152 1238.03 277.246C1237.67 276.332 1237.13 275.578 1236.42 274.984C1235.88 274.531 1235.2 274.211 1234.36 274.023C1233.53 273.828 1232.08 273.73 1230.01 273.73H1228.71V287.078ZM1226.65 289V271.844H1229.94C1232.38 271.844 1234.09 271.969 1235.09 272.219C1236.09 272.461 1236.96 272.871 1237.71 273.449C1238.7 274.207 1239.44 275.176 1239.95 276.355C1240.46 277.535 1240.71 278.895 1240.71 280.434C1240.71 281.965 1240.46 283.32 1239.95 284.5C1239.45 285.672 1238.7 286.637 1237.71 287.395C1236.96 287.973 1236.11 288.387 1235.14 288.637C1234.19 288.879 1232.7 289 1230.68 289H1229.94H1226.65Z" fill="black"/>
</g>
<mask id="mask3" mask-type="alpha" maskUnits="userSpaceOnUse" x="31" y="130" width="1221" height="42">
<rect x="31" y="130" width="1221" height="42" fill="white"/>
</mask>
<g mask="url(#mask3)">
<rect x="846" y="129" width="170" height="47" fill="#FFDE7D"/>
<rect x="1015" y="130" width="73" height="63" fill="#71FFA1"/>
<rect x="1084" y="130" width="182" height="50" fill="#6BD5E1"/>
<path d="M952.898 141.844H955.102L959.449 154.465L963.984 141.164L968.566 154.465L972.938 141.844H975.141L968.496 159.668L964.008 146.402L959.543 159.668L952.898 141.844ZM977.039 159V141.844H986.086V143.707H979.078V148.629H986.086V150.527H979.078V157.102H986.086V159H977.039ZM989.555 159V141.844H993.129C994.387 141.844 995.312 141.91 995.906 142.043C996.508 142.168 997.023 142.387 997.453 142.699C998 143.105 998.422 143.629 998.719 144.27C999.023 144.902 999.176 145.598 999.176 146.355C999.176 147.262 998.957 148.02 998.52 148.629C998.09 149.238 997.461 149.664 996.633 149.906C997.648 150.062 998.449 150.52 999.035 151.277C999.629 152.027 999.926 152.977 999.926 154.125C999.926 154.812 999.801 155.469 999.551 156.094C999.301 156.719 998.953 157.254 998.508 157.699C998.023 158.176 997.426 158.512 996.715 158.707C996.004 158.902 994.809 159 993.129 159H989.555ZM991.547 150.961V157.219H993.129C994.215 157.219 994.996 157.176 995.473 157.09C995.957 157.004 996.344 156.855 996.633 156.645C996.984 156.395 997.262 156.047 997.465 155.602C997.668 155.156 997.77 154.664 997.77 154.125C997.77 153.5 997.648 152.957 997.406 152.496C997.164 152.035 996.812 151.676 996.352 151.418C996.078 151.254 995.762 151.137 995.402 151.066C995.043 150.996 994.484 150.961 993.727 150.961H993.129H991.547ZM991.547 143.613V149.355H993.129C994.582 149.355 995.605 149.145 996.199 148.723C996.793 148.301 997.09 147.59 997.09 146.59C997.09 145.488 996.812 144.719 996.258 144.281C995.711 143.836 994.668 143.613 993.129 143.613H991.547ZM1015.03 159.668L1007.78 141.844H1009.99L1015.03 154.969L1020.05 141.844H1022.25L1015.03 159.668ZM1024.08 159V141.844H1026.12V159H1024.08ZM1032.33 157.078H1033.63C1035.74 157.078 1037.2 156.988 1038.01 156.809C1038.82 156.621 1039.5 156.305 1040.04 155.859C1040.74 155.273 1041.28 154.52 1041.64 153.598C1042.01 152.668 1042.2 151.605 1042.2 150.41C1042.2 149.207 1042.01 148.152 1041.64 147.246C1041.29 146.332 1040.75 145.578 1040.04 144.984C1039.5 144.531 1038.81 144.211 1037.98 144.023C1037.15 143.828 1035.7 143.73 1033.63 143.73H1032.33V157.078ZM1030.27 159V141.844H1033.56C1036 141.844 1037.71 141.969 1038.7 142.219C1039.7 142.461 1040.58 142.871 1041.33 143.449C1042.31 144.207 1043.06 145.176 1043.57 146.355C1044.07 147.535 1044.33 148.895 1044.33 150.434C1044.33 151.965 1044.07 153.32 1043.57 154.5C1043.07 155.672 1042.32 156.637 1041.33 157.395C1040.58 157.973 1039.72 158.387 1038.76 158.637C1037.81 158.879 1036.32 159 1034.3 159H1033.56H1030.27ZM1047.68 159V141.844H1056.73V143.707H1049.72V148.629H1056.73V150.527H1049.72V157.102H1056.73V159H1047.68ZM1068.57 157.535C1069.51 157.535 1070.4 157.359 1071.25 157.008C1072.1 156.648 1072.86 156.129 1073.54 155.449C1074.21 154.777 1074.73 154.016 1075.08 153.164C1075.43 152.312 1075.61 151.41 1075.61 150.457C1075.61 149.496 1075.43 148.582 1075.07 147.715C1074.71 146.848 1074.21 146.082 1073.54 145.418C1072.87 144.746 1072.11 144.234 1071.26 143.883C1070.41 143.531 1069.52 143.355 1068.57 143.355C1067.62 143.355 1066.72 143.531 1065.87 143.883C1065.02 144.234 1064.26 144.746 1063.61 145.418C1062.93 146.098 1062.42 146.867 1062.07 147.727C1061.72 148.586 1061.54 149.496 1061.54 150.457C1061.54 151.41 1061.71 152.309 1062.06 153.152C1062.41 153.996 1062.93 154.762 1063.61 155.449C1064.29 156.137 1065.05 156.656 1065.89 157.008C1066.73 157.359 1067.63 157.535 1068.57 157.535ZM1077.74 150.457C1077.74 151.684 1077.51 152.84 1077.06 153.926C1076.61 155.012 1075.95 155.977 1075.08 156.82C1074.21 157.664 1073.21 158.316 1072.08 158.777C1070.95 159.23 1069.79 159.457 1068.57 159.457C1067.36 159.457 1066.2 159.23 1065.07 158.777C1063.95 158.316 1062.96 157.664 1062.09 156.82C1061.22 155.969 1060.55 155 1060.09 153.914C1059.64 152.828 1059.41 151.676 1059.41 150.457C1059.41 149.23 1059.64 148.074 1060.09 146.988C1060.55 145.895 1061.22 144.922 1062.09 144.07C1062.95 143.234 1063.95 142.59 1065.07 142.137C1066.2 141.684 1067.36 141.457 1068.57 141.457C1069.79 141.457 1070.96 141.684 1072.09 142.137C1073.22 142.59 1074.22 143.234 1075.08 144.07C1075.95 144.914 1076.61 145.883 1077.06 146.977C1077.51 148.062 1077.74 149.223 1077.74 150.457ZM1090.15 151.301V159H1088.16V141.844H1091.75C1093.01 141.844 1093.94 141.91 1094.53 142.043C1095.12 142.176 1095.64 142.395 1096.08 142.699C1096.62 143.09 1097.05 143.625 1097.36 144.305C1097.67 144.984 1097.82 145.738 1097.82 146.566C1097.82 147.395 1097.67 148.148 1097.36 148.828C1097.05 149.508 1096.62 150.043 1096.08 150.434C1095.64 150.746 1095.12 150.969 1094.53 151.102C1093.95 151.234 1093.02 151.301 1091.75 151.301H1091.18H1090.15ZM1090.15 149.449H1091.18C1092.93 149.449 1094.11 149.246 1094.71 148.84C1095.32 148.426 1095.62 147.707 1095.62 146.684C1095.62 145.59 1095.31 144.82 1094.68 144.375C1094.07 143.93 1092.9 143.707 1091.18 143.707H1090.15V149.449ZM1100.34 159V141.844H1104.38C1105.52 141.844 1106.36 141.91 1106.89 142.043C1107.43 142.168 1107.91 142.387 1108.31 142.699C1108.82 143.098 1109.21 143.633 1109.5 144.305C1109.78 144.969 1109.92 145.707 1109.92 146.52C1109.92 147.926 1109.52 148.996 1108.73 149.73C1107.95 150.457 1106.8 150.82 1105.29 150.82H1104.93L1111.48 159H1108.89L1102.63 150.82H1102.34V159H1100.34ZM1102.34 143.566V149.309H1103.89C1105.49 149.309 1106.55 149.105 1107.09 148.699C1107.63 148.285 1107.9 147.566 1107.9 146.543C1107.9 145.441 1107.62 144.672 1107.07 144.234C1106.52 143.789 1105.46 143.566 1103.89 143.566H1102.34ZM1121.57 157.535C1122.5 157.535 1123.39 157.359 1124.24 157.008C1125.09 156.648 1125.86 156.129 1126.54 155.449C1127.21 154.777 1127.72 154.016 1128.07 153.164C1128.42 152.312 1128.6 151.41 1128.6 150.457C1128.6 149.496 1128.42 148.582 1128.06 147.715C1127.71 146.848 1127.2 146.082 1126.54 145.418C1125.86 144.746 1125.1 144.234 1124.25 143.883C1123.41 143.531 1122.51 143.355 1121.57 143.355C1120.61 143.355 1119.71 143.531 1118.86 143.883C1118.01 144.234 1117.25 144.746 1116.6 145.418C1115.93 146.098 1115.41 146.867 1115.06 147.727C1114.71 148.586 1114.54 149.496 1114.54 150.457C1114.54 151.41 1114.71 152.309 1115.05 153.152C1115.4 153.996 1115.92 154.762 1116.6 155.449C1117.29 156.137 1118.05 156.656 1118.88 157.008C1119.73 157.359 1120.62 157.535 1121.57 157.535ZM1130.73 150.457C1130.73 151.684 1130.5 152.84 1130.05 153.926C1129.6 155.012 1128.94 155.977 1128.07 156.82C1127.2 157.664 1126.2 158.316 1125.07 158.777C1123.95 159.23 1122.78 159.457 1121.57 159.457C1120.36 159.457 1119.19 159.23 1118.06 158.777C1116.95 158.316 1115.95 157.664 1115.09 156.82C1114.21 155.969 1113.54 155 1113.08 153.914C1112.63 152.828 1112.4 151.676 1112.4 150.457C1112.4 149.23 1112.63 148.074 1113.08 146.988C1113.54 145.895 1114.21 144.922 1115.09 144.07C1115.95 143.234 1116.94 142.59 1118.06 142.137C1119.19 141.684 1120.36 141.457 1121.57 141.457C1122.79 141.457 1123.96 141.684 1125.08 142.137C1126.21 142.59 1127.21 143.234 1128.07 144.07C1128.94 144.914 1129.6 145.883 1130.05 146.977C1130.5 148.062 1130.73 149.223 1130.73 150.457ZM1136.13 157.078H1137.43C1139.54 157.078 1141 156.988 1141.82 156.809C1142.63 156.621 1143.3 156.305 1143.84 155.859C1144.55 155.273 1145.08 154.52 1145.45 153.598C1145.82 152.668 1146 151.605 1146 150.41C1146 149.207 1145.82 148.152 1145.45 147.246C1145.09 146.332 1144.55 145.578 1143.84 144.984C1143.3 144.531 1142.62 144.211 1141.78 144.023C1140.95 143.828 1139.5 143.73 1137.43 143.73H1136.13V157.078ZM1134.07 159V141.844H1137.36C1139.8 141.844 1141.52 141.969 1142.51 142.219C1143.51 142.461 1144.38 142.871 1145.13 143.449C1146.12 144.207 1146.86 145.176 1147.37 146.355C1147.88 147.535 1148.13 148.895 1148.13 150.434C1148.13 151.965 1147.88 153.32 1147.37 154.5C1146.87 155.672 1146.12 156.637 1145.13 157.395C1144.38 157.973 1143.53 158.387 1142.57 158.637C1141.61 158.879 1140.12 159 1138.1 159H1137.36H1134.07ZM1151.41 141.844H1153.48V152.52C1153.48 154.254 1153.84 155.527 1154.58 156.34C1155.32 157.152 1156.48 157.559 1158.06 157.559C1159.64 157.559 1160.79 157.152 1161.53 156.34C1162.27 155.527 1162.64 154.254 1162.64 152.52V141.844H1164.71V152.52C1164.71 154.84 1164.16 156.578 1163.05 157.734C1161.95 158.883 1160.29 159.457 1158.06 159.457C1155.84 159.457 1154.18 158.883 1153.07 157.734C1151.96 156.578 1151.41 154.84 1151.41 152.52V141.844ZM1182.7 145.945C1181.88 145.055 1181.01 144.398 1180.08 143.977C1179.15 143.547 1178.12 143.332 1177 143.332C1176.09 143.332 1175.2 143.516 1174.34 143.883C1173.48 144.25 1172.73 144.762 1172.1 145.418C1171.44 146.098 1170.95 146.859 1170.62 147.703C1170.29 148.539 1170.13 149.465 1170.13 150.48C1170.13 151.277 1170.23 152.012 1170.42 152.684C1170.62 153.355 1170.91 153.973 1171.3 154.535C1171.99 155.512 1172.83 156.266 1173.83 156.797C1174.84 157.32 1175.93 157.582 1177.09 157.582C1178.18 157.582 1179.2 157.355 1180.14 156.902C1181.07 156.449 1181.93 155.773 1182.7 154.875V157.582C1181.85 158.199 1180.93 158.668 1179.95 158.988C1178.97 159.301 1177.96 159.457 1176.91 159.457C1176.01 159.457 1175.12 159.32 1174.27 159.047C1173.41 158.781 1172.6 158.391 1171.85 157.875C1170.6 157.008 1169.64 155.941 1168.98 154.676C1168.32 153.41 1168 152.02 1168 150.504C1168 149.184 1168.21 147.984 1168.65 146.906C1169.1 145.82 1169.77 144.836 1170.68 143.953C1171.55 143.109 1172.52 142.48 1173.59 142.066C1174.65 141.645 1175.81 141.434 1177.07 141.434C1178.06 141.434 1179.02 141.586 1179.95 141.891C1180.88 142.188 1181.8 142.652 1182.7 143.285V145.945ZM1189.2 159V143.789H1184.34V141.844H1196.09V143.789H1191.26V159H1189.2ZM1198.38 159V141.844H1200.42V159H1198.38ZM1212.95 157.535C1213.89 157.535 1214.78 157.359 1215.62 157.008C1216.47 156.648 1217.24 156.129 1217.92 155.449C1218.59 154.777 1219.1 154.016 1219.45 153.164C1219.8 152.312 1219.98 151.41 1219.98 150.457C1219.98 149.496 1219.8 148.582 1219.44 147.715C1219.09 146.848 1218.58 146.082 1217.92 145.418C1217.25 144.746 1216.48 144.234 1215.63 143.883C1214.79 143.531 1213.89 143.355 1212.95 143.355C1212 143.355 1211.09 143.531 1210.24 143.883C1209.39 144.234 1208.64 144.746 1207.98 145.418C1207.31 146.098 1206.8 146.867 1206.45 147.727C1206.09 148.586 1205.92 149.496 1205.92 150.457C1205.92 151.41 1206.09 152.309 1206.43 153.152C1206.79 153.996 1207.3 154.762 1207.98 155.449C1208.67 156.137 1209.43 156.656 1210.27 157.008C1211.11 157.359 1212 157.535 1212.95 157.535ZM1222.11 150.457C1222.11 151.684 1221.89 152.84 1221.43 153.926C1220.98 155.012 1220.32 155.977 1219.45 156.82C1218.59 157.664 1217.59 158.316 1216.45 158.777C1215.33 159.23 1214.16 159.457 1212.95 159.457C1211.74 159.457 1210.57 159.23 1209.45 158.777C1208.33 158.316 1207.34 157.664 1206.47 156.82C1205.59 155.969 1204.93 155 1204.46 153.914C1204.01 152.828 1203.79 151.676 1203.79 150.457C1203.79 149.23 1204.01 148.074 1204.46 146.988C1204.93 145.895 1205.59 144.922 1206.47 144.07C1207.33 143.234 1208.32 142.59 1209.45 142.137C1210.57 141.684 1211.74 141.457 1212.95 141.457C1214.17 141.457 1215.34 141.684 1216.46 142.137C1217.6 142.59 1218.59 143.234 1219.45 144.07C1220.32 144.914 1220.98 145.883 1221.43 146.977C1221.89 148.062 1222.11 149.223 1222.11 150.457ZM1225.45 159V141.164L1238 154.875V141.844H1239.95V159.668L1227.4 146.109V159H1225.45Z" fill="black"/>
</g>
<mask id="mask4" mask-type="alpha" maskUnits="userSpaceOnUse" x="31" y="0" width="1221" height="42">
<rect x="31" width="1221" height="42" fill="white"/>
</mask>
<g mask="url(#mask4)">
<rect x="31" y="-1" width="815" height="47" fill="#FFDE7D"/>
<rect x="846" width="371" height="63" fill="#71FFA1"/>
<rect x="1216" width="50" height="50" fill="#6BD5E1"/>
<path d="M1014.68 20.1406H1021.75V20.7148C1021.75 23.418 1020.99 25.5508 1019.46 27.1133C1017.93 28.6758 1015.84 29.457 1013.19 29.457C1012.38 29.457 1011.61 29.3711 1010.88 29.1992C1010.15 29.0273 1009.48 28.7773 1008.86 28.4492C1007.46 27.6758 1006.37 26.6094 1005.61 25.25C1004.84 23.8828 1004.46 22.332 1004.46 20.5977C1004.46 19.168 1004.68 17.8789 1005.14 16.7305C1005.6 15.5742 1006.29 14.5586 1007.21 13.6836C1007.98 12.9492 1008.88 12.3945 1009.91 12.0195C1010.93 11.6445 1012.06 11.457 1013.3 11.457C1014.95 11.457 1016.38 11.7578 1017.59 12.3594C1018.8 12.9531 1019.81 13.8516 1020.61 15.0547L1018.89 16.4258C1018.28 15.3867 1017.51 14.6094 1016.59 14.0938C1015.66 13.5703 1014.59 13.3086 1013.38 13.3086C1011.38 13.3086 1009.77 13.9805 1008.52 15.3242C1007.28 16.668 1006.66 18.4258 1006.66 20.5977C1006.66 22.6445 1007.29 24.3242 1008.55 25.6367C1009.81 26.9492 1011.42 27.6055 1013.38 27.6055C1015.09 27.6055 1016.52 27.0859 1017.66 26.0469C1018.81 25 1019.45 23.6406 1019.57 21.9688H1014.68V20.1406ZM1024.79 29V11.8438H1028.82C1029.97 11.8438 1030.81 11.9102 1031.34 12.043C1031.88 12.168 1032.35 12.3867 1032.76 12.6992C1033.27 13.0977 1033.66 13.6328 1033.94 14.3047C1034.22 14.9688 1034.36 15.707 1034.36 16.5195C1034.36 17.9258 1033.97 18.9961 1033.18 19.7305C1032.4 20.457 1031.25 20.8203 1029.73 20.8203H1029.37L1035.92 29H1033.33L1027.07 20.8203H1026.78V29H1024.79ZM1026.78 13.5664V19.3086H1028.34C1029.93 19.3086 1031 19.1055 1031.54 18.6992C1032.08 18.2852 1032.35 17.5664 1032.35 16.543C1032.35 15.4414 1032.07 14.6719 1031.52 14.2344C1030.96 13.7891 1029.9 13.5664 1028.34 13.5664H1026.78ZM1043.06 15.6758L1040.33 21.9922H1045.79L1043.06 15.6758ZM1043.06 11.1641L1050.86 29H1048.65L1046.42 23.7383H1039.72L1037.49 29H1035.28L1043.06 11.1641ZM1054.62 21.3008V29H1052.63V11.8438H1056.23C1057.49 11.8438 1058.41 11.9102 1059.01 12.043C1059.6 12.1758 1060.12 12.3945 1060.55 12.6992C1061.1 13.0898 1061.53 13.625 1061.83 14.3047C1062.14 14.9844 1062.3 15.7383 1062.3 16.5664C1062.3 17.3945 1062.14 18.1484 1061.83 18.8281C1061.53 19.5078 1061.1 20.043 1060.55 20.4336C1060.12 20.7461 1059.6 20.9688 1059.01 21.1016C1058.42 21.2344 1057.5 21.3008 1056.23 21.3008H1055.66H1054.62ZM1054.62 19.4492H1055.66C1057.41 19.4492 1058.58 19.2461 1059.18 18.8398C1059.79 18.4258 1060.1 17.707 1060.1 16.6836C1060.1 15.5898 1059.79 14.8203 1059.16 14.375C1058.54 13.9297 1057.38 13.707 1055.66 13.707H1054.62V19.4492ZM1064.82 29V11.8438H1066.86V18.4414H1075.98V11.8438H1078.05V29H1075.98V20.3867H1066.86V29H1064.82ZM1082.19 29V11.8438H1084.23V29H1082.19ZM1102.3 15.9453C1101.48 15.0547 1100.6 14.3984 1099.67 13.9766C1098.74 13.5469 1097.71 13.332 1096.59 13.332C1095.68 13.332 1094.8 13.5156 1093.93 13.8828C1093.07 14.25 1092.32 14.7617 1091.69 15.418C1091.04 16.0977 1090.54 16.8594 1090.21 17.7031C1089.89 18.5391 1089.72 19.4648 1089.72 20.4805C1089.72 21.2773 1089.82 22.0117 1090.02 22.6836C1090.21 23.3555 1090.5 23.9727 1090.89 24.5352C1091.58 25.5117 1092.43 26.2656 1093.43 26.7969C1094.43 27.3203 1095.52 27.582 1096.68 27.582C1097.78 27.582 1098.79 27.3555 1099.73 26.9023C1100.67 26.4492 1101.52 25.7734 1102.3 24.875V27.582C1101.45 28.1992 1100.53 28.668 1099.54 28.9883C1098.57 29.3008 1097.55 29.457 1096.51 29.457C1095.6 29.457 1094.72 29.3203 1093.86 29.0469C1093 28.7812 1092.2 28.3906 1091.45 27.875C1090.2 27.0078 1089.24 25.9414 1088.57 24.6758C1087.92 23.4102 1087.59 22.0195 1087.59 20.5039C1087.59 19.1836 1087.81 17.9844 1088.25 16.9062C1088.69 15.8203 1089.37 14.8359 1090.27 13.9531C1091.15 13.1094 1092.12 12.4805 1093.18 12.0664C1094.24 11.6445 1095.4 11.4336 1096.66 11.4336C1097.65 11.4336 1098.61 11.5859 1099.54 11.8906C1100.47 12.1875 1101.39 12.6523 1102.3 13.2852V15.9453ZM1114.93 27.0781H1116.23C1118.34 27.0781 1119.8 26.9883 1120.61 26.8086C1121.43 26.6211 1122.1 26.3047 1122.64 25.8594C1123.34 25.2734 1123.88 24.5195 1124.25 23.5977C1124.61 22.668 1124.8 21.6055 1124.8 20.4102C1124.8 19.207 1124.61 18.1523 1124.25 17.2461C1123.89 16.332 1123.35 15.5781 1122.64 14.9844C1122.1 14.5312 1121.41 14.2109 1120.58 14.0234C1119.75 13.8281 1118.3 13.7305 1116.23 13.7305H1114.93V27.0781ZM1112.87 29V11.8438H1116.16C1118.6 11.8438 1120.31 11.9688 1121.3 12.2188C1122.3 12.4609 1123.18 12.8711 1123.93 13.4492C1124.91 14.207 1125.66 15.1758 1126.17 16.3555C1126.68 17.5352 1126.93 18.8945 1126.93 20.4336C1126.93 21.9648 1126.68 23.3203 1126.17 24.5C1125.67 25.6719 1124.92 26.6367 1123.93 27.3945C1123.18 27.9727 1122.32 28.3867 1121.36 28.6367C1120.41 28.8789 1118.92 29 1116.9 29H1116.16H1112.87ZM1130.28 29V11.8438H1139.33V13.707H1132.32V18.6289H1139.33V20.5273H1132.32V27.1016H1139.33V29H1130.28ZM1149.04 19.4727C1150.16 19.9492 1151 20.582 1151.56 21.3711C1152.13 22.1602 1152.42 23.0938 1152.42 24.1719C1152.42 25.75 1151.91 27.0234 1150.91 27.9922C1149.91 28.9531 1148.58 29.4336 1146.92 29.4336C1145.57 29.4336 1144.44 29.0898 1143.52 28.4023C1142.61 27.707 1141.99 26.7227 1141.67 25.4492L1143.52 24.5352C1143.77 25.5742 1144.18 26.3633 1144.75 26.9023C1145.33 27.4336 1146.05 27.6992 1146.92 27.6992C1147.95 27.6992 1148.77 27.4062 1149.41 26.8203C1150.04 26.2266 1150.36 25.457 1150.36 24.5117C1150.36 23.7461 1150.13 23.082 1149.69 22.5195C1149.25 21.9492 1148.59 21.4688 1147.7 21.0781L1145.61 20.1875C1144.47 19.7109 1143.62 19.0977 1143.05 18.3477C1142.5 17.5977 1142.22 16.6992 1142.22 15.6523C1142.22 14.4336 1142.68 13.4258 1143.58 12.6289C1144.49 11.832 1145.64 11.4336 1147.05 11.4336C1148.08 11.4336 1148.97 11.6523 1149.72 12.0898C1150.48 12.5273 1151.07 13.1719 1151.49 14.0234L1149.8 15.1016C1149.42 14.4375 1148.99 13.9453 1148.52 13.625C1148.04 13.2969 1147.5 13.1328 1146.9 13.1328C1146.13 13.1328 1145.5 13.3672 1145.01 13.8359C1144.53 14.3047 1144.29 14.9023 1144.29 15.6289C1144.29 16.2383 1144.47 16.7656 1144.85 17.2109C1145.22 17.6562 1145.8 18.0508 1146.59 18.3945L1149.04 19.4727ZM1155.17 29V11.8438H1157.21V29H1155.17ZM1170.79 20.1406H1177.87V20.7148C1177.87 23.418 1177.11 25.5508 1175.57 27.1133C1174.04 28.6758 1171.95 29.457 1169.3 29.457C1168.5 29.457 1167.73 29.3711 1167 29.1992C1166.27 29.0273 1165.6 28.7773 1164.98 28.4492C1163.57 27.6758 1162.49 26.6094 1161.72 25.25C1160.96 23.8828 1160.57 22.332 1160.57 20.5977C1160.57 19.168 1160.8 17.8789 1161.25 16.7305C1161.71 15.5742 1162.41 14.5586 1163.33 13.6836C1164.1 12.9492 1165 12.3945 1166.02 12.0195C1167.05 11.6445 1168.18 11.457 1169.42 11.457C1171.07 11.457 1172.5 11.7578 1173.71 12.3594C1174.92 12.9531 1175.93 13.8516 1176.72 15.0547L1175.01 16.4258C1174.39 15.3867 1173.62 14.6094 1172.7 14.0938C1171.78 13.5703 1170.71 13.3086 1169.49 13.3086C1167.5 13.3086 1165.88 13.9805 1164.64 15.3242C1163.4 16.668 1162.78 18.4258 1162.78 20.5977C1162.78 22.6445 1163.41 24.3242 1164.66 25.6367C1165.93 26.9492 1167.54 27.6055 1169.49 27.6055C1171.21 27.6055 1172.64 27.0859 1173.78 26.0469C1174.93 25 1175.57 23.6406 1175.69 21.9688H1170.79V20.1406ZM1180.91 29V11.1641L1193.46 24.875V11.8438H1195.4V29.668L1182.85 16.1094V29H1180.91ZM1199.54 29V11.8438H1201.58V29H1199.54ZM1205.73 29V11.1641L1218.28 24.875V11.8438H1220.22V29.668L1207.67 16.1094V29H1205.73ZM1233.77 20.1406H1240.85V20.7148C1240.85 23.418 1240.08 25.5508 1238.55 27.1133C1237.02 28.6758 1234.93 29.457 1232.28 29.457C1231.48 29.457 1230.71 29.3711 1229.97 29.1992C1229.25 29.0273 1228.57 28.7773 1227.96 28.4492C1226.55 27.6758 1225.46 26.6094 1224.7 25.25C1223.93 23.8828 1223.55 22.332 1223.55 20.5977C1223.55 19.168 1223.78 17.8789 1224.23 16.7305C1224.69 15.5742 1225.38 14.5586 1226.3 13.6836C1227.08 12.9492 1227.98 12.3945 1229 12.0195C1230.02 11.6445 1231.16 11.457 1232.4 11.457C1234.05 11.457 1235.48 11.7578 1236.69 12.3594C1237.9 12.9531 1238.9 13.8516 1239.7 15.0547L1237.99 16.4258C1237.37 15.3867 1236.6 14.6094 1235.68 14.0938C1234.76 13.5703 1233.69 13.3086 1232.47 13.3086C1230.48 13.3086 1228.86 13.9805 1227.62 15.3242C1226.38 16.668 1225.75 18.4258 1225.75 20.5977C1225.75 22.6445 1226.38 24.3242 1227.64 25.6367C1228.91 26.9492 1230.52 27.6055 1232.47 27.6055C1234.19 27.6055 1235.62 27.0859 1236.76 26.0469C1237.91 25 1238.54 23.6406 1238.67 21.9688H1233.77V20.1406Z" fill="black"/>
</g>
<line x1="1250.5" y1="686" x2="1250.5" y2="6.55671e-08" stroke="white" stroke-width="3"/>
<line x1="32.5" y1="686" x2="32.5" y2="6.55671e-08" stroke="white" stroke-width="3"/>
<line x1="709.5" y1="686" x2="709.5" y2="6.55671e-08" stroke="white" stroke-width="3"/>
<line x1="573.5" y1="686" x2="573.5" y2="629" stroke="white" stroke-width="3"/>
<line x1="844.5" y1="686" x2="844.5" y2="629" stroke="white" stroke-width="3"/>
<line x1="979.5" y1="686" x2="979.5" y2="629" stroke="white" stroke-width="3"/>
<line x1="1115.5" y1="686" x2="1115.5" y2="629" stroke="white" stroke-width="3"/>
<line x1="438.5" y1="686" x2="438.5" y2="629" stroke="white" stroke-width="3"/>
<line x1="303.5" y1="686" x2="303.5" y2="629" stroke="white" stroke-width="3"/>
<line x1="167.5" y1="686" x2="167.5" y2="629" stroke="white" stroke-width="3"/>
<path d="M1260.95 640.871H1259V630.535L1263.3 634.156C1263.58 634.398 1263.99 634.746 1264.53 635.199C1267.84 637.988 1270.14 639.383 1271.46 639.383C1272.34 639.383 1273.06 639.07 1273.61 638.445C1274.18 637.828 1274.46 637.016 1274.46 636.008C1274.46 634.922 1274.15 634.09 1273.54 633.512C1272.94 632.934 1272.07 632.645 1270.93 632.645H1270.73V630.723C1270.79 630.723 1270.86 630.719 1270.96 630.711C1271.07 630.703 1271.14 630.699 1271.19 630.699C1272.81 630.699 1274.07 631.172 1274.97 632.117C1275.88 633.062 1276.33 634.383 1276.33 636.078C1276.33 637.742 1275.91 639.043 1275.07 639.98C1274.23 640.926 1273.07 641.398 1271.57 641.398C1270.5 641.398 1269.38 641.078 1268.22 640.438C1267.07 639.805 1265.62 638.68 1263.85 637.062L1260.95 634.367V640.871ZM1258.54 650.445C1258.54 648.594 1259.33 647.133 1260.91 646.062C1262.5 645 1264.68 644.469 1267.45 644.469C1270.21 644.469 1272.38 644.996 1273.95 646.051C1275.54 647.113 1276.33 648.562 1276.33 650.398C1276.33 652.273 1275.55 653.738 1273.99 654.793C1272.43 655.848 1270.25 656.375 1267.45 656.375C1264.66 656.375 1262.48 655.848 1260.9 654.793C1259.33 653.746 1258.54 652.297 1258.54 650.445ZM1260.22 650.422C1260.22 651.68 1260.83 652.633 1262.05 653.281C1263.27 653.938 1265.07 654.266 1267.43 654.266C1269.79 654.266 1271.59 653.938 1272.82 653.281C1274.05 652.633 1274.67 651.68 1274.67 650.422C1274.67 649.211 1274.04 648.266 1272.77 647.586C1271.51 646.914 1269.75 646.578 1267.47 646.578C1265.18 646.578 1263.4 646.914 1262.13 647.586C1260.86 648.266 1260.22 649.211 1260.22 650.422ZM1259 664.051H1274.21V660.547L1275.99 661.695V666.043H1259V664.051ZM1274.77 678.758C1274.77 677.82 1274.52 677.078 1274 676.531C1273.49 675.984 1272.8 675.711 1271.91 675.711C1271.04 675.711 1270.36 675.977 1269.86 676.508C1269.37 677.039 1269.12 677.773 1269.12 678.711C1269.12 679.68 1269.37 680.434 1269.85 680.973C1270.34 681.512 1271.03 681.781 1271.91 681.781C1272.8 681.781 1273.49 681.512 1274 680.973C1274.52 680.434 1274.77 679.695 1274.77 678.758ZM1260.2 678.734C1260.2 679.867 1260.5 680.75 1261.11 681.383C1261.72 682.016 1262.57 682.332 1263.65 682.332C1264.75 682.332 1265.62 682.012 1266.24 681.371C1266.87 680.738 1267.18 679.859 1267.18 678.734C1267.18 677.617 1266.86 676.738 1266.23 676.098C1265.61 675.457 1264.75 675.137 1263.65 675.137C1262.57 675.137 1261.72 675.453 1261.11 676.086C1260.5 676.719 1260.2 677.602 1260.2 678.734ZM1268.07 676.508C1268.38 675.539 1268.86 674.812 1269.51 674.328C1270.18 673.844 1271.02 673.602 1272.03 673.602C1273.29 673.602 1274.32 674.078 1275.12 675.031C1275.93 675.984 1276.33 677.227 1276.33 678.758C1276.33 680.328 1275.93 681.574 1275.11 682.496C1274.3 683.426 1273.22 683.891 1271.87 683.891C1270.94 683.891 1270.14 683.637 1269.48 683.129C1268.81 682.629 1268.34 681.918 1268.07 680.996C1267.75 682.113 1267.2 682.98 1266.41 683.598C1265.62 684.215 1264.67 684.523 1263.56 684.523C1262 684.523 1260.77 684.012 1259.88 682.988C1258.99 681.973 1258.54 680.562 1258.54 678.758C1258.54 676.977 1258.99 675.566 1259.88 674.527C1260.78 673.496 1261.99 672.98 1263.51 672.98C1264.65 672.98 1265.62 673.285 1266.42 673.895C1267.21 674.512 1267.77 675.383 1268.07 676.508Z" fill="white"/>
<path d="M41.9453 640.871H40V630.535L44.3008 634.156C44.582 634.398 44.9922 634.746 45.5312 635.199C48.8359 637.988 51.1445 639.383 52.457 639.383C53.3398 639.383 54.0586 639.07 54.6133 638.445C55.1758 637.828 55.457 637.016 55.457 636.008C55.457 634.922 55.1523 634.09 54.543 633.512C53.9414 632.934 53.0703 632.645 51.9297 632.645H51.7305V630.723C51.7852 630.723 51.8633 630.719 51.9648 630.711C52.0664 630.703 52.1406 630.699 52.1875 630.699C53.8125 630.699 55.0742 631.172 55.9727 632.117C56.8789 633.062 57.332 634.383 57.332 636.078C57.332 637.742 56.9102 639.043 56.0664 639.98C55.2305 640.926 54.0664 641.398 52.5742 641.398C51.4961 641.398 50.3789 641.078 49.2227 640.438C48.0742 639.805 46.6172 638.68 44.8516 637.062L41.9453 634.367V640.871ZM39.543 650.445C39.543 648.594 40.332 647.133 41.9102 646.062C43.4961 645 45.6758 644.469 48.4492 644.469C51.207 644.469 53.375 644.996 54.9531 646.051C56.5391 647.113 57.332 648.562 57.332 650.398C57.332 652.273 56.5508 653.738 54.9883 654.793C53.4258 655.848 51.2461 656.375 48.4492 656.375C45.6602 656.375 43.4766 655.848 41.8984 654.793C40.3281 653.746 39.543 652.297 39.543 650.445ZM41.2188 650.422C41.2188 651.68 41.8281 652.633 43.0469 653.281C44.2734 653.938 46.0664 654.266 48.4258 654.266C50.793 654.266 52.5898 653.938 53.8164 653.281C55.0508 652.633 55.668 651.68 55.668 650.422C55.668 649.211 55.0352 648.266 53.7695 647.586C52.5117 646.914 50.7461 646.578 48.4727 646.578C46.1836 646.578 44.4023 646.914 43.1289 647.586C41.8555 648.266 41.2188 649.211 41.2188 650.422ZM39.543 664.602C39.543 662.75 40.332 661.289 41.9102 660.219C43.4961 659.156 45.6758 658.625 48.4492 658.625C51.207 658.625 53.375 659.152 54.9531 660.207C56.5391 661.27 57.332 662.719 57.332 664.555C57.332 666.43 56.5508 667.895 54.9883 668.949C53.4258 670.004 51.2461 670.531 48.4492 670.531C45.6602 670.531 43.4766 670.004 41.8984 668.949C40.3281 667.902 39.543 666.453 39.543 664.602ZM41.2188 664.578C41.2188 665.836 41.8281 666.789 43.0469 667.438C44.2734 668.094 46.0664 668.422 48.4258 668.422C50.793 668.422 52.5898 668.094 53.8164 667.438C55.0508 666.789 55.668 665.836 55.668 664.578C55.668 663.367 55.0352 662.422 53.7695 661.742C52.5117 661.07 50.7461 660.734 48.4727 660.734C46.1836 660.734 44.4023 661.07 43.1289 661.742C41.8555 662.422 41.2188 663.367 41.2188 664.578ZM51.8828 682.191C53.0391 682.191 53.9531 681.871 54.625 681.23C55.3047 680.59 55.6445 679.727 55.6445 678.641C55.6445 677.578 55.3008 676.723 54.6133 676.074C53.9258 675.434 53.0156 675.113 51.8828 675.113C50.7031 675.113 49.7734 675.434 49.0938 676.074C48.4219 676.723 48.0859 677.609 48.0859 678.734C48.0859 679.758 48.4375 680.59 49.1406 681.23C49.8438 681.871 50.7578 682.191 51.8828 682.191ZM47.1953 680.82C46.9219 680.398 46.7188 679.973 46.5859 679.543C46.4531 679.113 46.3867 678.66 46.3867 678.184C46.3867 676.645 46.875 675.395 47.8516 674.434C48.8359 673.48 50.1133 673.004 51.6836 673.004C53.418 673.004 54.793 673.543 55.8086 674.621C56.8242 675.699 57.332 677.168 57.332 679.027C57.332 680.598 56.8125 681.863 55.7734 682.824C54.7422 683.793 53.3867 684.277 51.707 684.277C50.0898 684.277 47.7578 683.203 44.7109 681.055L44.5938 680.973L39.0625 677.059L39.9766 675.277L47.1953 680.82Z" fill="white"/>
<path d="M718.945 640.871H717V630.535L721.301 634.156C721.582 634.398 721.992 634.746 722.531 635.199C725.836 637.988 728.145 639.383 729.457 639.383C730.34 639.383 731.059 639.07 731.613 638.445C732.176 637.828 732.457 637.016 732.457 636.008C732.457 634.922 732.152 634.09 731.543 633.512C730.941 632.934 730.07 632.645 728.93 632.645H728.73V630.723C728.785 630.723 728.863 630.719 728.965 630.711C729.066 630.703 729.141 630.699 729.188 630.699C730.812 630.699 732.074 631.172 732.973 632.117C733.879 633.062 734.332 634.383 734.332 636.078C734.332 637.742 733.91 639.043 733.066 639.98C732.23 640.926 731.066 641.398 729.574 641.398C728.496 641.398 727.379 641.078 726.223 640.438C725.074 639.805 723.617 638.68 721.852 637.062L718.945 634.367V640.871ZM716.543 650.445C716.543 648.594 717.332 647.133 718.91 646.062C720.496 645 722.676 644.469 725.449 644.469C728.207 644.469 730.375 644.996 731.953 646.051C733.539 647.113 734.332 648.562 734.332 650.398C734.332 652.273 733.551 653.738 731.988 654.793C730.426 655.848 728.246 656.375 725.449 656.375C722.66 656.375 720.477 655.848 718.898 654.793C717.328 653.746 716.543 652.297 716.543 650.445ZM718.219 650.422C718.219 651.68 718.828 652.633 720.047 653.281C721.273 653.938 723.066 654.266 725.426 654.266C727.793 654.266 729.59 653.938 730.816 653.281C732.051 652.633 732.668 651.68 732.668 650.422C732.668 649.211 732.035 648.266 730.77 647.586C729.512 646.914 727.746 646.578 725.473 646.578C723.184 646.578 721.402 646.914 720.129 647.586C718.855 648.266 718.219 649.211 718.219 650.422ZM717 664.051H732.211V660.547L733.992 661.695V666.043H717V664.051ZM717 680.223H720.691V672.184L734.332 681.371V682.238H722.355V684.254H720.691V682.238H717V680.223ZM722.355 680.223H729.891L722.355 675.207V680.223Z" fill="white"/>
<rect x="44" y="709" width="30" height="30" rx="15" fill="#FFDE7D"/>
<path d="M86.0625 732V714.164L98.6133 727.875V714.844H100.559V732.668L88.0078 719.109V732H86.0625ZM113.051 730.535C113.988 730.535 114.879 730.359 115.723 730.008C116.574 729.648 117.34 729.129 118.02 728.449C118.691 727.777 119.203 727.016 119.555 726.164C119.906 725.312 120.082 724.41 120.082 723.457C120.082 722.496 119.902 721.582 119.543 720.715C119.191 719.848 118.684 719.082 118.02 718.418C117.348 717.746 116.586 717.234 115.734 716.883C114.891 716.531 113.996 716.355 113.051 716.355C112.098 716.355 111.195 716.531 110.344 716.883C109.492 717.234 108.738 717.746 108.082 718.418C107.41 719.098 106.898 719.867 106.547 720.727C106.195 721.586 106.02 722.496 106.02 723.457C106.02 724.41 106.191 725.309 106.535 726.152C106.887 726.996 107.402 727.762 108.082 728.449C108.77 729.137 109.531 729.656 110.367 730.008C111.211 730.359 112.105 730.535 113.051 730.535ZM122.215 723.457C122.215 724.684 121.988 725.84 121.535 726.926C121.082 728.012 120.422 728.977 119.555 729.82C118.688 730.664 117.688 731.316 116.555 731.777C115.43 732.23 114.262 732.457 113.051 732.457C111.84 732.457 110.672 732.23 109.547 731.777C108.43 731.316 107.438 730.664 106.57 729.82C105.695 728.969 105.027 728 104.566 726.914C104.113 725.828 103.887 724.676 103.887 723.457C103.887 722.23 104.113 721.074 104.566 719.988C105.027 718.895 105.695 717.922 106.57 717.07C107.43 716.234 108.422 715.59 109.547 715.137C110.672 714.684 111.84 714.457 113.051 714.457C114.27 714.457 115.441 714.684 116.566 715.137C117.699 715.59 118.695 716.234 119.555 717.07C120.422 717.914 121.082 718.883 121.535 719.977C121.988 721.062 122.215 722.223 122.215 723.457ZM130.031 732.668L122.777 714.844H124.992L130.031 727.969L135.047 714.844H137.25L130.031 732.668ZM139.078 732V714.844H141.117V732H139.078ZM159.188 718.945C158.367 718.055 157.492 717.398 156.562 716.977C155.633 716.547 154.605 716.332 153.48 716.332C152.574 716.332 151.688 716.516 150.82 716.883C149.961 717.25 149.215 717.762 148.582 718.418C147.926 719.098 147.434 719.859 147.105 720.703C146.777 721.539 146.613 722.465 146.613 723.48C146.613 724.277 146.711 725.012 146.906 725.684C147.102 726.355 147.395 726.973 147.785 727.535C148.473 728.512 149.316 729.266 150.316 729.797C151.324 730.32 152.41 730.582 153.574 730.582C154.668 730.582 155.684 730.355 156.621 729.902C157.559 729.449 158.414 728.773 159.188 727.875V730.582C158.336 731.199 157.418 731.668 156.434 731.988C155.457 732.301 154.445 732.457 153.398 732.457C152.492 732.457 151.609 732.32 150.75 732.047C149.891 731.781 149.086 731.391 148.336 730.875C147.086 730.008 146.129 728.941 145.465 727.676C144.809 726.41 144.48 725.02 144.48 723.504C144.48 722.184 144.699 720.984 145.137 719.906C145.582 718.82 146.258 717.836 147.164 716.953C148.039 716.109 149.008 715.48 150.07 715.066C151.133 714.645 152.293 714.434 153.551 714.434C154.543 714.434 155.504 714.586 156.434 714.891C157.363 715.188 158.281 715.652 159.188 716.285V718.945ZM162.68 732V714.844H171.727V716.707H164.719V721.629H171.727V723.527H164.719V730.102H171.727V732H162.68Z" fill="white"/>
<rect x="400" y="709" width="30" height="30" rx="15" fill="#71FFA1"/>
<path d="M442.086 732V714.844H444.125V732H442.086ZM448.273 732V714.164L460.824 727.875V714.844H462.77V732.668L450.219 719.109V732H448.273ZM469.883 732V716.789H465.031V714.844H476.773V716.789H471.945V732H469.883ZM479.047 732V714.844H488.094V716.707H481.086V721.629H488.094V723.527H481.086V730.102H488.094V732H479.047ZM491.562 732V714.844H495.594C496.742 714.844 497.582 714.91 498.113 715.043C498.652 715.168 499.125 715.387 499.531 715.699C500.039 716.098 500.434 716.633 500.715 717.305C500.996 717.969 501.137 718.707 501.137 719.52C501.137 720.926 500.742 721.996 499.953 722.73C499.172 723.457 498.023 723.82 496.508 723.82H496.145L502.695 732H500.105L493.848 723.82H493.555V732H491.562ZM493.555 716.566V722.309H495.113C496.707 722.309 497.773 722.105 498.312 721.699C498.852 721.285 499.121 720.566 499.121 719.543C499.121 718.441 498.844 717.672 498.289 717.234C497.734 716.789 496.676 716.566 495.113 716.566H493.555ZM512.398 732.668L507.066 720.34L504.91 732H502.918L506.398 714.164L512.398 728.355L518.398 714.164L521.879 732H519.887L517.707 720.34L512.398 732.668ZM524.516 732V714.844H533.562V716.707H526.555V721.629H533.562V723.527H526.555V730.102H533.562V732H524.516ZM539.094 730.078H540.395C542.504 730.078 543.965 729.988 544.777 729.809C545.59 729.621 546.266 729.305 546.805 728.859C547.508 728.273 548.043 727.52 548.41 726.598C548.777 725.668 548.961 724.605 548.961 723.41C548.961 722.207 548.777 721.152 548.41 720.246C548.051 719.332 547.516 718.578 546.805 717.984C546.266 717.531 545.578 717.211 544.742 717.023C543.914 716.828 542.465 716.73 540.395 716.73H539.094V730.078ZM537.031 732V714.844H540.324C542.762 714.844 544.477 714.969 545.469 715.219C546.469 715.461 547.344 715.871 548.094 716.449C549.078 717.207 549.824 718.176 550.332 719.355C550.84 720.535 551.094 721.895 551.094 723.434C551.094 724.965 550.84 726.32 550.332 727.5C549.832 728.672 549.086 729.637 548.094 730.395C547.344 730.973 546.488 731.387 545.527 731.637C544.574 731.879 543.086 732 541.062 732H540.324H537.031ZM554.469 732V714.844H556.508V732H554.469ZM566.082 718.676L563.352 724.992H568.812L566.082 718.676ZM566.082 714.164L573.887 732H571.672L569.445 726.738H562.742L560.516 732H558.301L566.082 714.164ZM577.344 732V716.789H572.492V714.844H584.234V716.789H579.406V732H577.344ZM586.508 732V714.844H595.555V716.707H588.547V721.629H595.555V723.527H588.547V730.102H595.555V732H586.508Z" fill="white"/>
<rect x="756" y="709" width="30" height="30" rx="15" fill="#6BD5E1"/>
<path d="M803.488 718.676L800.758 724.992H806.219L803.488 718.676ZM803.488 714.164L811.293 732H809.078L806.852 726.738H800.148L797.922 732H795.707L803.488 714.164ZM815.125 730.078H816.426C818.535 730.078 819.996 729.988 820.809 729.809C821.621 729.621 822.297 729.305 822.836 728.859C823.539 728.273 824.074 727.52 824.441 726.598C824.809 725.668 824.992 724.605 824.992 723.41C824.992 722.207 824.809 721.152 824.441 720.246C824.082 719.332 823.547 718.578 822.836 717.984C822.297 717.531 821.609 717.211 820.773 717.023C819.945 716.828 818.496 716.73 816.426 716.73H815.125V730.078ZM813.062 732V714.844H816.355C818.793 714.844 820.508 714.969 821.5 715.219C822.5 715.461 823.375 715.871 824.125 716.449C825.109 717.207 825.855 718.176 826.363 719.355C826.871 720.535 827.125 721.895 827.125 723.434C827.125 724.965 826.871 726.32 826.363 727.5C825.863 728.672 825.117 729.637 824.125 730.395C823.375 730.973 822.52 731.387 821.559 731.637C820.605 731.879 819.117 732 817.094 732H816.355H813.062ZM834.953 732.668L827.699 714.844H829.914L834.953 727.969L839.969 714.844H842.172L834.953 732.668ZM848.98 718.676L846.25 724.992H851.711L848.98 718.676ZM848.98 714.164L856.785 732H854.57L852.344 726.738H845.641L843.414 732H841.199L848.98 714.164ZM858.555 732V714.164L871.105 727.875V714.844H873.051V732.668L860.5 719.109V732H858.555ZM891.086 718.945C890.266 718.055 889.391 717.398 888.461 716.977C887.531 716.547 886.504 716.332 885.379 716.332C884.473 716.332 883.586 716.516 882.719 716.883C881.859 717.25 881.113 717.762 880.48 718.418C879.824 719.098 879.332 719.859 879.004 720.703C878.676 721.539 878.512 722.465 878.512 723.48C878.512 724.277 878.609 725.012 878.805 725.684C879 726.355 879.293 726.973 879.684 727.535C880.371 728.512 881.215 729.266 882.215 729.797C883.223 730.32 884.309 730.582 885.473 730.582C886.566 730.582 887.582 730.355 888.52 729.902C889.457 729.449 890.312 728.773 891.086 727.875V730.582C890.234 731.199 889.316 731.668 888.332 731.988C887.355 732.301 886.344 732.457 885.297 732.457C884.391 732.457 883.508 732.32 882.648 732.047C881.789 731.781 880.984 731.391 880.234 730.875C878.984 730.008 878.027 728.941 877.363 727.676C876.707 726.41 876.379 725.02 876.379 723.504C876.379 722.184 876.598 720.984 877.035 719.906C877.48 718.82 878.156 717.836 879.062 716.953C879.938 716.109 880.906 715.48 881.969 715.066C883.031 714.645 884.191 714.434 885.449 714.434C886.441 714.434 887.402 714.586 888.332 714.891C889.262 715.188 890.18 715.652 891.086 716.285V718.945ZM894.578 732V714.844H903.625V716.707H896.617V721.629H903.625V723.527H896.617V730.102H903.625V732H894.578ZM909.156 730.078H910.457C912.566 730.078 914.027 729.988 914.84 729.809C915.652 729.621 916.328 729.305 916.867 728.859C917.57 728.273 918.105 727.52 918.473 726.598C918.84 725.668 919.023 724.605 919.023 723.41C919.023 722.207 918.84 721.152 918.473 720.246C918.113 719.332 917.578 718.578 916.867 717.984C916.328 717.531 915.641 717.211 914.805 717.023C913.977 716.828 912.527 716.73 910.457 716.73H909.156V730.078ZM907.094 732V714.844H910.387C912.824 714.844 914.539 714.969 915.531 715.219C916.531 715.461 917.406 715.871 918.156 716.449C919.141 717.207 919.887 718.176 920.395 719.355C920.902 720.535 921.156 721.895 921.156 723.434C921.156 724.965 920.902 726.32 920.395 727.5C919.895 728.672 919.148 729.637 918.156 730.395C917.406 730.973 916.551 731.387 915.59 731.637C914.637 731.879 913.148 732 911.125 732H910.387H907.094Z" fill="white"/>
<rect x="1112" y="709" width="30" height="30" rx="15" fill="#BB6FFF"/>
<path d="M1154.06 732V714.844H1163.11V716.707H1156.1V721.629H1163.11V723.527H1156.1V730.102H1163.11V732H1154.06ZM1164.38 732L1169.65 722.883L1164.73 714.844H1167.18L1170.86 721.371L1174.41 714.844H1176.73L1171.86 723.07L1177.34 732H1174.93L1170.7 724.605L1166.7 732H1164.38ZM1181.27 724.301V732H1179.28V714.844H1182.88C1184.14 714.844 1185.06 714.91 1185.66 715.043C1186.25 715.176 1186.77 715.395 1187.2 715.699C1187.75 716.09 1188.18 716.625 1188.48 717.305C1188.79 717.984 1188.95 718.738 1188.95 719.566C1188.95 720.395 1188.79 721.148 1188.48 721.828C1188.18 722.508 1187.75 723.043 1187.2 723.434C1186.77 723.746 1186.25 723.969 1185.66 724.102C1185.07 724.234 1184.14 724.301 1182.88 724.301H1182.3H1181.27ZM1181.27 722.449H1182.3C1184.05 722.449 1185.23 722.246 1185.83 721.84C1186.44 721.426 1186.75 720.707 1186.75 719.684C1186.75 718.59 1186.43 717.82 1185.81 717.375C1185.19 716.93 1184.02 716.707 1182.3 716.707H1181.27V722.449ZM1191.47 732V714.844H1200.52V716.707H1193.51V721.629H1200.52V723.527H1193.51V730.102H1200.52V732H1191.47ZM1203.98 732V714.844H1208.02C1209.16 714.844 1210 714.91 1210.54 715.043C1211.07 715.168 1211.55 715.387 1211.95 715.699C1212.46 716.098 1212.86 716.633 1213.14 717.305C1213.42 717.969 1213.56 718.707 1213.56 719.52C1213.56 720.926 1213.16 721.996 1212.38 722.73C1211.59 723.457 1210.45 723.82 1208.93 723.82H1208.57L1215.12 732H1212.53L1206.27 723.82H1205.98V732H1203.98ZM1205.98 716.566V722.309H1207.54C1209.13 722.309 1210.2 722.105 1210.73 721.699C1211.27 721.285 1211.54 720.566 1211.54 719.543C1211.54 718.441 1211.27 717.672 1210.71 717.234C1210.16 716.789 1209.1 716.566 1207.54 716.566H1205.98ZM1219.83 732V716.789H1214.98V714.844H1226.72V716.789H1221.89V732H1219.83Z" fill="white"/>
</g>
<defs>
<clipPath id="clip0">
<rect width="1278" height="782" fill="white"/>
</clipPath>
</defs>
</svg>
